<svg role='img' xmlns="http://www.w3.org/2000/svg"
 width="225.000000pt" height="225.000000pt" viewBox="0 0 225.000000 225.000000"
 preserveAspectRatio="xMidYMid meet">
<g transform="translate(0.000000,225.000000) scale(0.100000,-0.100000)"
fill="#ffffff" stroke="none">
<path d="M1097 1615 c-505 -195 -932 -364 -948 -376 -37 -26 -40 -70 -7 -91
23 -15 470 -159 498 -160 8 -1 259 153 556 340 298 188 551 342 563 342 11 0
21 -6 21 -14 0 -7 -195 -190 -434 -406 -420 -379 -434 -393 -440 -433 -9 -73
-29 -427 -24 -432 14 -14 65 24 181 135 l127 122 26 -17 c14 -9 114 -82 221
-162 108 -80 210 -153 227 -164 56 -34 114 -22 141 30 21 41 325 1484 325
1543 0 61 -31 98 -82 97 -18 0 -440 -157 -951 -354z"/>
</g>
</svg>
